<svg width="26" height="30" viewBox="0 0 26 30" fill="none" xmlns="http://www.w3.org/2000/svg">
<g clip-path="url(#clip0_47_86)">
<path d="M5.74552 0C5.93909 0 6.13267 0 6.32541 0C6.35711 0.0185331 6.38715 0.0438055 6.42136 0.0555992C7.07801 0.290632 7.42011 0.769123 7.42678 1.46411C7.42845 1.59637 7.42678 1.72779 7.42678 1.85668H18.5849C18.5849 1.6267 18.559 1.4102 18.5899 1.20212C18.6842 0.563574 19.1039 0.209761 19.6738 0C19.8673 0 20.0609 0 20.2545 0C20.277 0.0168483 20.297 0.0404358 20.3221 0.0488599C21.0346 0.306638 21.3534 0.760699 21.3567 1.52561C21.3567 1.63765 21.3567 1.74969 21.3567 1.87521C22.1151 1.87521 22.8302 1.87353 23.5453 1.87521C25.0204 1.87942 25.9992 2.86589 26 4.35443C26.0008 12.0768 26.0008 19.7992 26 27.5216C26 29.0068 25.0154 29.9992 23.5436 29.9992C16.514 30 9.48436 29.9992 2.4539 29.9992C2.29954 29.9992 2.14268 29.9983 1.99166 29.973C0.776804 29.77 0.000834376 28.8265 0 27.5477C0 19.806 0 12.0642 0 4.32242C0 4.26345 0 4.20532 0.00166875 4.14636C0.0292032 3.18685 0.617438 2.34191 1.5194 2.0319C1.81477 1.93081 2.14184 1.89122 2.45557 1.88195C3.17647 1.86089 3.89904 1.87521 4.65582 1.87521C4.65582 1.62923 4.63079 1.41273 4.66083 1.20465C4.75344 0.562732 5.1748 0.209761 5.74552 0ZM0.928661 7.51179V7.85213C0.928661 13.4575 0.928661 19.0621 0.928661 24.6675C0.928661 25.6995 1.47935 26.2496 2.51231 26.2496C8.06425 26.2496 13.6154 26.2496 19.1673 26.2496C19.2699 26.2496 19.3734 26.2496 19.4985 26.2496C19.4985 26.1097 19.4985 26.0044 19.4985 25.8983C19.4985 24.9607 19.4969 24.0231 19.4985 23.0863C19.5019 21.6129 20.4764 20.6298 21.9399 20.6248C22.8778 20.6223 23.8164 20.6248 24.7543 20.6248C24.8561 20.6248 24.957 20.6248 25.0555 20.6248V7.51179H0.928661ZM4.62411 2.81956C3.79558 2.81956 2.98373 2.79428 2.17438 2.82798C1.5461 2.85409 0.995411 3.36375 0.955361 4.00315C0.903629 4.84556 0.942845 5.69387 0.942845 6.54555H25.0655C25.0655 5.70987 25.0905 4.89105 25.0572 4.07391C25.0313 3.42946 24.5106 2.87263 23.8665 2.8364C23.0405 2.78923 22.2103 2.82461 21.3559 2.82461C21.3559 2.98804 21.3584 3.13209 21.3559 3.27614C21.3375 4.07644 20.7234 4.69392 19.9516 4.68803C19.1948 4.68213 18.5907 4.06633 18.5732 3.27951C18.5699 3.12788 18.5732 2.97624 18.5732 2.82714H7.42595C7.44347 3.28794 7.44347 3.73863 7.15227 4.11856C6.85357 4.50859 6.45974 4.70319 5.9708 4.6855C5.13225 4.65601 4.73509 4.11182 4.62328 2.81956H4.62411ZM25.0713 22.3079C25.043 22.2902 25.0138 22.2717 24.9854 22.254C24.9212 22.3391 24.8644 22.4326 24.7902 22.5076C23.3358 23.9793 21.8765 25.4476 20.4255 26.9218C20.242 27.108 20.0476 27.1914 19.7847 27.1914C14.0033 27.1863 8.22111 27.1863 2.43972 27.1897C1.95244 27.1897 1.50355 27.0785 1.0897 26.819C1.04714 26.7921 0.996245 26.7786 0.929495 26.7508C0.929495 27.033 0.929495 27.2866 0.929495 27.5393C0.931998 28.4761 1.50271 29.0616 2.42637 29.0616C9.47434 29.0632 16.5232 29.0632 23.5711 29.0616C24.4973 29.0616 25.0705 28.4794 25.0713 27.5427C25.073 25.8739 25.0713 24.2042 25.0713 22.5345C25.0713 22.4587 25.0713 22.3829 25.0713 22.3071V22.3079ZM20.4414 25.4493C21.7155 24.1663 23.0113 22.8606 24.2945 21.5691C23.4376 21.5691 22.5415 21.5413 21.6479 21.5784C21.0396 21.6037 20.4889 22.1251 20.4556 22.7451C20.4047 23.6634 20.4422 24.5875 20.4422 25.4484L20.4414 25.4493ZM6.49729 2.34612C6.49729 2.03443 6.50563 1.72358 6.49478 1.41273C6.48477 1.13136 6.29704 0.945187 6.04339 0.940133C5.77722 0.934236 5.57614 1.12715 5.5728 1.42115C5.56446 2.03358 5.56529 2.64686 5.5728 3.25929C5.57614 3.55414 5.77472 3.75042 6.03755 3.74874C6.29787 3.74705 6.48728 3.54993 6.49645 3.25087C6.5048 2.94929 6.49812 2.6477 6.49812 2.34612H6.49729ZM20.4255 2.35117C20.4255 2.03948 20.4339 1.72779 20.423 1.41694C20.413 1.12209 20.2119 0.930866 19.9474 0.93929C19.6938 0.947714 19.5044 1.13557 19.501 1.4161C19.4927 2.02937 19.4935 2.64265 19.501 3.25508C19.5044 3.5533 19.6971 3.74705 19.9616 3.74789C20.2261 3.74874 20.4147 3.55582 20.4239 3.25593C20.433 2.95434 20.4255 2.65276 20.4255 2.35117Z" fill="white"/>
<path d="M12.0709 11.2437C12.0709 11.5461 12.0751 11.8494 12.0701 12.1518C12.0601 12.7213 11.683 13.1147 11.1256 13.1223C10.5165 13.1307 9.90741 13.1307 9.29832 13.1223C8.7543 13.1147 8.36632 12.7238 8.35881 12.1771C8.35046 11.552 8.34963 10.927 8.35881 10.3027C8.36715 9.77623 8.76181 9.38451 9.28664 9.37692C9.90574 9.3685 10.5248 9.3685 11.1431 9.37692C11.6671 9.38451 12.0526 9.77538 12.0684 10.3061C12.0776 10.6186 12.0701 10.9312 12.0709 11.2437ZM9.29665 12.1653H11.1289V10.3289H9.29665V12.1653Z" fill="white"/>
<path d="M15.7964 13.124C15.4868 13.124 15.1773 13.1299 14.8677 13.1223C14.3221 13.1096 13.9382 12.7255 13.9299 12.1754C13.9216 11.5604 13.9216 10.9455 13.9299 10.3305C13.9366 9.7661 14.3254 9.38112 14.8886 9.37606C15.4877 9.37101 16.0876 9.37016 16.6875 9.37606C17.2449 9.38196 17.6345 9.77368 17.6412 10.3364C17.6479 10.9413 17.6479 11.547 17.6412 12.1527C17.6354 12.7305 17.2457 13.1147 16.6667 13.1231C16.3763 13.1273 16.0868 13.1231 15.7964 13.1231V13.124ZM16.7017 10.3271H14.8736V12.167H16.7017V10.3271Z" fill="white"/>
<path d="M17.6421 16.8895C17.6421 17.202 17.6496 17.5146 17.6404 17.8263C17.6254 18.3393 17.2416 18.7361 16.7351 18.7462C16.0968 18.758 15.4585 18.7597 14.821 18.7453C14.3313 18.7344 13.9424 18.3376 13.9324 17.8406C13.9191 17.1962 13.9191 16.5517 13.9324 15.9081C13.9424 15.4094 14.3296 15.0151 14.821 15.005C15.4593 14.9916 16.0976 14.9924 16.7351 15.005C17.2407 15.0143 17.6246 15.4111 17.6396 15.9241C17.6487 16.2459 17.6412 16.5686 17.6412 16.8904L17.6421 16.8895ZM14.8686 17.7909H16.7001V15.9536H14.8686V17.7909Z" fill="white"/>
<path d="M21.3492 15C21.6487 15 21.9491 14.9966 22.2486 15C22.8118 15.0084 23.2032 15.3892 23.2115 15.9519C23.2207 16.5669 23.2207 17.1818 23.2115 17.7968C23.2032 18.3452 22.8152 18.7395 22.2762 18.747C21.6579 18.7555 21.0388 18.7571 20.4197 18.747C19.8999 18.7378 19.5094 18.3376 19.5019 17.8103C19.4935 17.186 19.4927 16.561 19.5019 15.9359C19.5094 15.4035 19.8957 15.016 20.4214 15.0017C20.7309 14.9932 21.0405 15 21.3492 15ZM20.4397 17.7909H22.2612V15.9528H20.4397V17.7909Z" fill="white"/>
<path d="M8.35714 22.4882C8.35714 22.1757 8.35047 21.8632 8.35881 21.5515C8.37216 21.0376 8.75097 20.6408 9.25994 20.6299C9.8974 20.6164 10.5357 20.6164 11.174 20.6299C11.6688 20.6408 12.0559 21.03 12.0668 21.5287C12.081 22.1723 12.0801 22.8168 12.0668 23.4612C12.0568 23.9633 11.6771 24.355 11.1815 24.3676C10.534 24.3845 9.88572 24.3853 9.23908 24.3676C8.74763 24.3542 8.37383 23.9523 8.35965 23.4545C8.35047 23.1327 8.35798 22.81 8.35798 22.4882H8.35714ZM11.1289 21.5776H9.30332V23.4166H11.1289V21.5776Z" fill="white"/>
<path d="M17.642 22.5118C17.642 22.8243 17.6495 23.1369 17.6404 23.4486C17.6253 23.9616 17.2465 24.3575 16.7367 24.3693C16.0993 24.3836 15.4601 24.3845 14.8227 24.3693C14.3137 24.3567 13.9391 23.9591 13.9316 23.4393C13.9224 22.8151 13.9224 22.19 13.9316 21.5649C13.9391 21.0317 14.3212 20.6391 14.8485 20.629C15.4668 20.6172 16.0859 20.6189 16.705 20.629C17.2474 20.6374 17.6312 21.0308 17.642 21.5759C17.6487 21.8884 17.6429 22.201 17.642 22.5126V22.5118ZM16.6892 23.4309V21.5801H14.8777V23.4309H16.6892Z" fill="white"/>
<path d="M19.4994 11.2336C19.4994 10.921 19.4918 10.6085 19.501 10.2968C19.5152 9.78377 19.8999 9.38699 20.4055 9.37857C21.0338 9.36762 21.6629 9.36846 22.2912 9.37857C22.801 9.38615 23.1965 9.77113 23.2082 10.2842C23.2223 10.9278 23.2223 11.5731 23.2082 12.2167C23.1973 12.7187 22.8143 13.1079 22.3195 13.1197C21.6821 13.1349 21.0429 13.1332 20.4055 13.1206C19.8957 13.1105 19.516 12.7154 19.5019 12.2006C19.4927 11.8788 19.5002 11.5562 19.5002 11.2344L19.4994 11.2336ZM22.2645 12.1737V10.3347H20.4422V12.1737H22.2645Z" fill="white"/>
<path d="M6.49815 16.9039C6.49815 17.197 6.50315 17.4893 6.49731 17.7825C6.48647 18.3486 6.10349 18.742 5.54779 18.7479C4.9387 18.7546 4.3296 18.7563 3.72051 18.7479C3.17983 18.7403 2.79435 18.3452 2.78768 17.7968C2.78017 17.1818 2.78017 16.5669 2.78768 15.9519C2.79435 15.401 3.17816 15.0101 3.72051 15.0025C4.3296 14.9941 4.9387 14.9949 5.54779 15.0025C6.10599 15.0084 6.48647 15.3993 6.49731 15.9679C6.50315 16.2805 6.49815 16.593 6.49815 16.9047V16.9039ZM3.72802 17.7951H5.5503V15.9587H3.72802V17.7951Z" fill="white"/>
<path d="M12.0709 16.9039C12.0709 17.197 12.0751 17.4893 12.0701 17.7825C12.0592 18.3469 11.6746 18.7412 11.1197 18.7479C10.5106 18.7546 9.90154 18.7563 9.29245 18.7479C8.75344 18.7403 8.36546 18.3444 8.35878 17.7977C8.35127 17.1827 8.35127 16.5677 8.35878 15.9528C8.36546 15.4061 8.75344 15.0101 9.29328 15.0034C9.90238 14.995 10.5115 14.9958 11.1206 15.0034C11.6779 15.0093 12.0592 15.4002 12.0701 15.9688C12.0759 16.2813 12.0709 16.5939 12.0709 16.9064V16.9039ZM9.29579 17.7892H11.1281V15.9553H9.29579V17.7892Z" fill="white"/>
<path d="M2.78599 11.2336C2.78599 10.9311 2.78099 10.6287 2.78683 10.3263C2.79851 9.78039 3.18399 9.38446 3.72216 9.37688C4.34044 9.3693 4.95954 9.36761 5.57782 9.37688C6.08679 9.38446 6.48228 9.77029 6.49396 10.2833C6.50815 10.9269 6.50898 11.5714 6.49396 12.215C6.48145 12.7297 6.09012 13.1113 5.57698 13.1206C4.95871 13.1315 4.3396 13.1307 3.72133 13.1206C3.18316 13.1121 2.79934 12.7145 2.7885 12.1686C2.78266 11.8569 2.78766 11.5444 2.78766 11.2319L2.78599 11.2336ZM5.55195 12.1813V10.333H3.73635V12.1813H5.55195Z" fill="white"/>
<path d="M4.64249 20.6256C4.9512 20.6256 5.26076 20.618 5.56948 20.6273C6.09096 20.6424 6.48562 21.0325 6.4948 21.5582C6.50648 22.1824 6.50565 22.8066 6.4948 23.43C6.48562 23.9734 6.0943 24.3625 5.55196 24.3718C4.9437 24.3811 4.33544 24.3819 3.72634 24.3718C3.18233 24.3634 2.79434 23.9717 2.78683 23.4283C2.77849 22.8142 2.77932 22.2001 2.78683 21.5851C2.79351 21.03 3.189 20.6374 3.74386 20.6264C4.0434 20.6205 4.34294 20.6256 4.64165 20.6264L4.64249 20.6256ZM5.55613 21.5809H3.73635V23.4216H5.55613V21.5809Z" fill="white"/>
<path d="M12.9963 5.15642C11.9908 5.15642 10.9854 5.15642 9.97915 5.15642C9.89238 5.15642 9.80477 5.16063 9.71799 5.15221C9.43848 5.12525 9.27327 4.93908 9.28161 4.66866C9.28996 4.41341 9.45516 4.23482 9.72467 4.22303C10.0142 4.21039 10.3046 4.21882 10.5949 4.21882C12.4414 4.21882 14.2887 4.21376 16.1352 4.2264C16.3004 4.22724 16.5165 4.29632 16.6149 4.41341C16.7017 4.51703 16.7242 4.77902 16.6517 4.88853C16.5632 5.02248 16.3488 5.14041 16.1861 5.14378C15.1231 5.16569 14.0593 5.15558 12.9954 5.15558L12.9963 5.15642Z" fill="white"/>
</g>
<defs>
<clipPath id="clip0_47_86">
<rect width="26" height="30" fill="white"/>
</clipPath>
</defs>
</svg>
