<svg width="26" height="27" viewBox="0 0 26 27" fill="none" xmlns="http://www.w3.org/2000/svg">
<path d="M0.27002 14.3699V12.8899C0.29002 12.8099 0.299946 12.7299 0.319946 12.6499C0.459946 11.8599 0.51999 11.0599 0.73999 10.2899C2.66999 3.35988 9.90004 -0.580142 16.79 1.51986C23.15 3.45986 26.9901 10.0099 25.4301 16.4599C24.3201 21.0799 21.38 24.1499 16.87 25.6899C16.14 25.9399 15.37 26.0599 14.59 26.2399V16.2599H17.64C17.79 15.0699 17.95 13.9199 18.1 12.7299H14.58C14.58 11.8499 14.54 10.9999 14.59 10.1499C14.64 9.22986 15.11 8.80986 16.04 8.76986C16.67 8.74986 17.3001 8.74986 17.9301 8.73986C18.0201 8.73986 18.1 8.73988 18.21 8.72988C18.21 7.70988 18.21 6.71986 18.21 5.73986C18.21 5.67986 18.1 5.57988 18.04 5.56988C17.03 5.52988 16.02 5.44987 15.01 5.46987C14.05 5.48987 13.15 5.80987 12.4 6.43987C11.42 7.26987 11.0001 8.35987 10.9301 9.59987C10.8801 10.5399 10.9 11.4799 10.89 12.4199C10.89 12.5199 10.89 12.6099 10.89 12.7399H7.83997V16.2799H10.88V26.0799C10.88 26.0799 10.82 26.0899 10.8 26.0799C9.68005 25.8899 8.60997 25.5499 7.58997 25.0599C5.66997 24.1499 4.06004 22.8499 2.79004 21.1499C1.60004 19.5599 0.819981 17.7799 0.47998 15.8199C0.39998 15.3399 0.350029 14.8399 0.280029 14.3599L0.27002 14.3699Z" fill="#A7A8AA"/>
</svg>
