<svg width="32" height="32" viewBox="0 0 32 32" fill="none" xmlns="http://www.w3.org/2000/svg">
<g clip-path="url(#clip0_187_649)">
<path d="M0.328195 13.5436C0.454098 13.1491 0.725953 12.8669 1.02267 12.5918C5.08285 8.83356 9.13822 5.06969 13.1944 1.30742C13.6427 0.892061 13.9113 0.89126 14.3556 1.30261C15.5665 2.42519 16.7774 3.54618 17.9891 4.66716C18.0605 4.73371 18.1367 4.79466 18.2449 4.88927C18.2538 4.76258 18.265 4.67919 18.2658 4.595C18.2682 4.04493 18.261 3.49486 18.2706 2.94479C18.277 2.54948 18.5056 2.28728 18.8977 2.28327C20.1784 2.26883 21.4591 2.26803 22.7398 2.28327C23.1624 2.28808 23.3837 2.56632 23.3845 3.02417C23.3861 5.13464 23.3893 7.2459 23.3797 9.35637C23.3789 9.5873 23.4495 9.74045 23.6187 9.89441C24.6227 10.8125 25.6163 11.7419 26.6131 12.668C26.6933 12.7426 26.7767 12.8155 26.8489 12.8981C27.0766 13.1595 27.071 13.5316 26.8417 13.7697C26.6091 14.0119 26.2506 14.0319 25.9716 13.8162C25.9242 13.7794 25.8817 13.7369 25.8376 13.696C24.7165 12.6536 23.6003 11.6056 22.4703 10.5736C22.2121 10.3378 22.1014 10.0844 22.1038 9.73564C22.1151 7.81522 22.1095 5.89399 22.1095 3.97356C22.1095 3.85489 22.1095 3.73622 22.1095 3.59108H19.5425C19.5425 3.6857 19.5425 3.79154 19.5425 3.89739C19.5425 4.67759 19.5361 5.45778 19.5457 6.23798C19.5497 6.56594 19.4687 6.84338 19.1471 6.97408C18.844 7.09676 18.5938 6.98049 18.3604 6.76239C16.9931 5.48505 15.6186 4.21572 14.2465 2.94399C14.1006 2.80848 13.953 2.67457 13.7774 2.5134C9.73886 6.25883 5.70996 9.99544 1.63454 13.7754C1.79092 13.7842 1.88474 13.7938 1.97857 13.7946C2.85909 13.797 3.73961 13.797 4.62013 13.7994C5.23281 13.801 5.44532 14.0159 5.44532 14.6341C5.44532 17.6956 5.46056 20.7562 5.4365 23.8177C5.42928 24.7005 5.96577 25.3548 6.95215 25.3348C8.75249 25.2971 10.5544 25.3228 12.3556 25.3252C12.7782 25.3252 13.0452 25.5048 13.1142 25.8207C13.1928 26.1815 12.9867 26.5103 12.6218 26.5873C12.5063 26.6121 12.3836 26.6129 12.2641 26.6129C10.4831 26.6145 8.70196 26.6153 6.92087 26.6129C5.24404 26.6113 4.17105 25.5312 4.17025 23.8474C4.17025 21.0561 4.17025 18.2649 4.17025 15.4745V15.0888C3.60489 15.0888 3.06759 15.0888 2.5303 15.0888C2.2801 15.0888 2.02989 15.0816 1.77969 15.0904C1.04191 15.1168 0.573586 14.7624 0.327393 14.0841V13.5436H0.328195Z" fill="white"/>
<path d="M22.5441 31.7313C19.9234 29.7187 17.5007 27.5104 15.6972 24.7031C15.1054 23.781 14.6579 22.7947 14.4718 21.7002C14.0564 19.2521 15.8768 16.756 18.3355 16.4248C20.0517 16.1931 21.4863 16.7271 22.6323 18.0277C22.6588 18.0574 22.6884 18.0838 22.7173 18.1111C22.7245 18.1175 22.7357 18.1191 22.666 18.0911C23.2065 17.6821 23.6764 17.2355 24.2241 16.9292C25.8881 15.9998 27.913 16.2244 29.3886 17.44C30.8312 18.6283 31.407 20.5688 30.8593 22.4002C30.3733 24.0239 29.4287 25.3823 28.3613 26.6628C26.8496 28.4766 25.1127 30.0554 23.2546 31.5044C23.1455 31.5894 23.0212 31.6559 22.9041 31.7313H22.5441ZM22.7013 30.3016C22.7895 30.2399 22.8312 30.2134 22.8689 30.1837C24.6283 28.7709 26.2634 27.2297 27.6788 25.4681C28.4824 24.4674 29.2041 23.4121 29.5939 22.1701C29.982 20.9344 29.8056 19.7918 28.9491 18.8007C27.3861 16.9925 24.488 17.3694 23.4005 19.5007C23.3075 19.6827 23.1487 19.8744 22.9715 19.9594C22.609 20.1342 22.3059 19.9562 22.0774 19.5039C21.3275 18.0229 19.6387 17.3036 18.0725 17.7984C16.467 18.3052 15.4919 19.8696 15.7437 21.5278C15.86 22.2911 16.1663 22.9831 16.548 23.6431C17.4967 25.2868 18.7606 26.6772 20.1206 27.9811C20.9563 28.7821 21.8408 29.5318 22.7005 30.3016H22.7013Z" fill="white"/>
</g>
<defs>
<clipPath id="clip0_187_649">
<rect width="30.7364" height="30.7364" fill="white" transform="translate(0.328125 0.994751)"/>
</clipPath>
</defs>
</svg>
