<svg width="27" height="27" viewBox="0 0 27 27" fill="none" xmlns="http://www.w3.org/2000/svg">
<path d="M26.0201 7.10995C25.6401 4.64995 24.41 2.78995 22.08 1.73995C21.14 1.31995 20.14 1.11997 19.12 1.06997C15.61 0.899969 12.1 0.939951 8.57999 1.01995C7.25999 1.04995 5.97004 1.21997 4.76004 1.78997C2.72004 2.74997 1.53008 4.36997 1.05008 6.53997C0.780083 7.75997 0.770044 9.00996 0.760044 10.25C0.750044 12.97 0.770083 15.69 0.800083 18.42C0.810083 19.74 0.989981 21.05 1.56998 22.26C2.49998 24.21 4.06006 25.39 6.15006 25.9C7.15006 26.14 8.16009 26.18 9.18009 26.21C9.34009 26.21 9.49006 26.23 9.65006 26.25H17.3101C17.9101 26.22 18.51 26.19 19.12 26.15C20.85 26.03 22.4501 25.57 23.7801 24.4C25.0101 23.32 25.69 21.9399 25.96 20.3599C26.04 19.8699 26.07 19.37 26.12 18.87C26.12 18.78 26.1501 18.6899 26.1601 18.6099V8.43996C26.1101 7.99996 26.08 7.55996 26.01 7.11996L26.0201 7.10995ZM23.87 18.04C23.86 18.85 23.79 19.68 23.6 20.46C23.12 22.39 21.8 23.51 19.84 23.76C18.41 23.94 16.95 23.92 15.5 23.97C14.82 23.99 14.14 23.97 13.46 23.97C13.46 23.98 13.46 24 13.46 24.01C11.64 23.97 9.81003 23.93 7.99003 23.87C7.07002 23.84 6.18004 23.64 5.38004 23.18C4.10004 22.43 3.41005 21.27 3.27005 19.84C3.13005 18.44 3.08999 17.02 3.07999 15.6C3.05999 13.55 3.08003 11.5 3.12003 9.45995C3.14003 8.57995 3.19005 7.68996 3.39005 6.83996C3.82005 4.93996 5.09004 3.81997 7.01004 3.50997C8.11004 3.32997 9.24001 3.30997 10.35 3.28997C12.74 3.25997 15.12 3.26995 17.51 3.29995C18.4 3.30995 19.3101 3.35997 20.1801 3.53997C22.2101 3.93997 23.49 5.31995 23.74 7.35995C23.87 8.36995 23.9201 9.38997 23.9201 10.41C23.9401 12.95 23.92 15.49 23.88 18.03L23.87 18.04ZM13.5 7.11996C9.90003 7.09996 6.94998 10.01 6.93998 13.6C6.92998 17.17 9.86001 20.09 13.48 20.1C17.08 20.1 20.0301 17.19 20.0201 13.6C20.0201 10.02 17.12 7.12995 13.5 7.10995V7.11996ZM13.48 17.81C11.13 17.81 9.25003 15.93 9.25003 13.6C9.25003 11.27 11.14 9.39998 13.48 9.38998C15.84 9.38998 17.73 11.2699 17.72 13.6099C17.72 15.9399 15.82 17.8099 13.48 17.7999V17.81ZM20.26 5.34997C19.42 5.35997 18.76 6.03997 18.76 6.87997C18.76 7.71997 19.4601 8.38997 20.3101 8.37997C21.1501 8.36997 21.8101 7.68997 21.8001 6.84997C21.8001 5.99997 21.11 5.33995 20.25 5.35995L20.26 5.34997Z" fill="#A7A8AA"/>
</svg>
