<svg width="27" height="27" viewBox="0 0 27 27" fill="none" xmlns="http://www.w3.org/2000/svg">
<path d="M0.619995 23.18V4.01996C0.639995 3.94996 0.660044 3.87997 0.670044 3.80997C0.960044 2.17997 2.38995 0.959961 4.06995 0.959961C10.2899 0.959961 16.51 0.959961 22.72 0.959961C24.61 0.959961 26.15 2.48995 26.16 4.35995C26.16 10.52 26.16 16.68 26.16 22.85C26.16 24.35 25.13 25.68 23.67 26.1C23.47 26.16 23.2699 26.2 23.0699 26.25H3.70996C3.70996 26.25 3.61995 26.22 3.56995 26.21C2.11995 25.94 1.17999 25.1 0.73999 23.71C0.68999 23.54 0.659985 23.36 0.609985 23.19L0.619995 23.18ZM14.23 12.13C14.23 11.92 14.23 11.71 14.23 11.5C14.23 11.1 14.05 10.92 13.65 10.92C12.91 10.92 12.1701 10.92 11.4301 10.92C11.0301 10.92 10.85 11.1 10.85 11.49C10.85 14.63 10.85 17.78 10.85 20.92C10.85 21.32 11.04 21.5 11.45 21.5C12.13 21.5 12.81 21.5 13.5 21.5C14.08 21.5 14.22 21.36 14.22 20.79C14.22 19.21 14.22 17.63 14.22 16.05C14.22 15.45 14.3499 14.87 14.6899 14.36C15.0999 13.74 15.71 13.55 16.42 13.64C17.07 13.73 17.51 14.11 17.67 14.73C17.8 15.25 17.85 15.8 17.86 16.34C17.88 17.86 17.86 19.38 17.86 20.91C17.86 21.32 18.04 21.5 18.45 21.5C19.2 21.5 19.9499 21.5 20.6899 21.5C21.1299 21.5 21.3101 21.32 21.3101 20.88C21.3101 19.15 21.33 17.42 21.29 15.7C21.27 14.98 21.2 14.25 21.05 13.55C20.77 12.25 20.0501 11.28 18.6801 10.92C18.2801 10.82 17.86 10.76 17.45 10.76C16.18 10.74 15.04 11.03 14.21 12.13H14.23ZM5.95996 16.22C5.95996 17.77 5.95996 19.31 5.95996 20.86C5.95996 21.31 6.16 21.5 6.62 21.5C7.29999 21.5 7.98003 21.5 8.66003 21.5C9.13003 21.5 9.32996 21.31 9.32996 20.85C9.32996 17.76 9.32996 14.66 9.32996 11.57C9.32996 11.1 9.14003 10.92 8.66003 10.92C7.99003 10.92 7.31001 10.92 6.64001 10.92C6.14001 10.92 5.95996 11.1 5.95996 11.61V16.22ZM9.81995 7.86996C9.82995 6.68996 8.86994 5.71996 7.68994 5.70996C6.47994 5.68996 5.47997 6.64997 5.46997 7.83997C5.45997 9.02997 6.42 9.99998 7.62 10.01C8.84 10.01 9.80995 9.07996 9.81995 7.86996Z" fill="#A7A8AA"/>
</svg>
