<svg width="142" height="49" viewBox="0 0 142 49" fill="none" xmlns="http://www.w3.org/2000/svg">
<path d="M45.12 28.9199C45.12 31.4699 43.28 33.1099 39.39 33.1099C37.48 33.1399 35.58 33.0199 33.69 32.7399V31.0799C35.33 31.2999 36.99 31.4399 38.65 31.4799C41.8 31.4799 43.43 30.8099 43.43 28.8899V28.1199C43.43 27.0799 43.07 26.0999 41.16 25.8399L37.57 25.3699C35.1 25.0699 33.61 23.8599 33.61 21.7999V20.7299C33.61 18.1799 35.18 16.4199 39.7 16.4199C41.19 16.4299 42.68 16.5399 44.16 16.7499V18.3299C42.73 18.1499 41.29 18.0499 39.84 18.0299C36.65 18.0299 35.31 18.8999 35.31 20.7099V21.4499C35.31 22.4899 35.66 23.4999 37.57 23.7299L41.16 24.1999C43.67 24.4999 45.09 25.7499 45.09 27.7899L45.11 28.9199H45.12Z" fill="#A7A8AA"/>
<path d="M60.66 22.0399V24.0799C60.66 24.8999 60 25.5699 59.18 25.5699C59.18 25.5699 59.18 25.5699 59.17 25.5699H49.33V27.4799C49.33 30.6399 52.45 31.5199 55.17 31.5199C56.82 31.5199 58.46 31.4099 60.09 31.1799V32.7299C58.38 32.9799 56.65 33.1099 54.92 33.0999C51.1 33.0999 47.63 31.7899 47.63 27.0499V22.0399C47.63 18.7499 49.12 16.4199 54.21 16.4199C59.3 16.4199 60.66 18.7399 60.66 22.0399ZM58.36 23.9499C58.69 23.9499 58.96 23.6799 58.96 23.3499V21.2599C58.96 19.4099 57.44 17.9399 54.18 17.9399C51.32 17.9399 49.33 19.0799 49.33 21.3399V23.9599H58.37L58.36 23.9499Z" fill="#A7A8AA"/>
<path d="M62 16.79V18.03H65.22V35.78C65.22 37.36 64.8 38.67 62.46 38.67C62.06 38.67 61.66 38.63 61.26 38.57V40.15C61.79 40.24 62.32 40.28 62.86 40.28C65.76 40.28 66.89 38.7 66.89 36.29V16.8H61.97H61.99L62 16.79Z" fill="#A7A8AA"/>
<path d="M66.92 9.36035H65.22V12.7304H66.92V9.36035Z" fill="#A7A8AA"/>
<path d="M81.18 29.9402L76.4 32.9602C76.08 33.0502 75.75 33.1002 75.41 33.1002C72.04 33.1002 70.06 31.3102 70.06 28.6302V28.0002C70.06 25.7802 71.51 23.8102 75.83 23.6302L81.17 23.4302V21.5502C81.17 18.9302 79.38 18.0602 76.39 18.0602C74.98 18.0602 71.44 18.3902 71.44 18.3902V16.7802C71.44 16.7802 75.12 16.4502 77.07 16.4502C79.62 16.4502 82.87 17.3902 82.87 21.7202V32.7502H81.17V29.9602L81.18 29.9402ZM81.19 24.9302L75.63 25.1602C73.08 25.2602 71.77 26.3002 71.77 27.9502V28.9202C71.77 30.1602 72.87 31.4702 74.81 31.4702C75.54 31.5002 76.27 31.3102 76.9 30.9302L81.18 28.2502V24.9202L81.19 24.9302Z" fill="#A7A8AA"/>
<path d="M86.03 9.36035H88.63V19.4404L92.47 17.0504C93.01 16.7104 93.63 16.5104 94.26 16.4504C97.97 16.4504 99.56 18.6004 99.56 21.5604V27.6404C99.56 31.9804 96.34 33.0904 92.77 33.0904C89.2 33.0904 86.01 31.9804 86.01 27.6404L86.03 9.36035ZM88.63 27.7104C88.63 29.9304 90.26 30.8304 92.77 30.8304C95.28 30.8304 96.96 29.9304 96.96 27.7104V22.3304C96.96 20.3104 95.94 18.5904 94.04 18.5904C93.46 18.5304 92.87 18.6904 92.39 19.0104L88.64 21.3504V27.7104H88.63Z" fill="#A7A8AA"/>
<path d="M115.61 22.0402V24.3802C115.61 25.2002 114.95 25.8601 114.13 25.8601H104.71V27.3401C104.71 30.1301 107.26 30.7302 109.88 30.7302C111.37 30.7302 113.56 30.5601 115.05 30.4001V32.7202C113.26 32.9602 111.45 33.0901 109.64 33.0901C105.82 33.0901 102.11 31.7802 102.11 27.0402V22.0302C102.11 18.7402 103.63 16.4102 108.9 16.4102C114.17 16.4102 115.62 18.7302 115.62 22.0302L115.61 22.0402ZM112.4 23.6201C112.73 23.6201 113 23.3501 113 23.0201V21.6702C113 19.8202 111.8 18.6101 108.9 18.6101C106.39 18.6101 104.71 19.4801 104.71 21.7401V23.6201H112.4Z" fill="#A7A8AA"/>
<path d="M129.51 28.8202C129.51 31.6802 127.42 33.0901 123.21 33.0901C121.33 33.0901 119.45 32.9602 117.58 32.7202V30.4402C117.58 30.4402 120.84 30.8102 122.75 30.8102C125.87 30.8102 127.07 30.2702 127.07 28.7202V28.0102C127.07 27.1002 126.61 26.2901 124.84 26.0602L121.44 25.6201C119.11 25.3201 117.51 23.8302 117.51 21.7602V20.6801C117.51 17.8201 119.63 16.4102 123.63 16.4102C125.28 16.4302 126.92 16.5401 128.55 16.7401V18.9901C128.55 18.9901 125.97 18.6902 124.02 18.6902C121.16 18.6902 119.95 19.2302 119.95 20.8102V21.4901C119.95 22.3901 120.4 23.2002 122.17 23.4402L125.57 23.8802C127.96 24.1802 129.5 25.6701 129.5 27.7401V28.8202H129.51Z" fill="#A7A8AA"/>
<path d="M141.02 32.7902C140.2 32.9502 139.38 33.0402 138.54 33.0602C135.39 33.0602 133.76 31.8602 133.76 28.2202V19.0402H130.77V16.7902H133.76V12.2202H136.38V16.7902H141.01V19.0402H136.38V27.8502C136.38 29.6402 136.91 30.6702 138.77 30.6702C139.16 30.6702 140.56 30.5702 140.99 30.5002L141.01 32.7802L141.02 32.7902Z" fill="#A7A8AA"/>
<path d="M18.92 36.06L7.61 47.37C6.79 48.19 5.69 48.64 4.54 48.64H4.47C2.07 48.64 0.129997 46.7 0.129997 44.3V32.98H5.51L13.76 24.77L18.92 29.94C20.6 31.63 20.6 34.37 18.92 36.06Z" fill="#A7A8AA"/>
<path d="M18.92 13.4501L7.61 2.14014C6.79 1.32014 5.69 0.870117 4.54 0.870117H4.47C2.07 0.870117 0.129997 2.81011 0.129997 5.21011V16.5301H5.51L13.76 24.7901L18.92 19.6201C20.62 17.9401 20.64 15.1901 18.95 13.4901C18.94 13.4801 18.93 13.4701 18.92 13.4601V13.4501Z" fill="#A7A8AA"/>
</svg>
