<svg width="245" height="67" viewBox="0 0 245 67" fill="none" xmlns="http://www.w3.org/2000/svg">
<g clip-path="url(#clip0_3_7)">
<path d="M26.3226 49.3529L10.4794 65.2124C9.33813 66.3549 7.78737 67 6.17619 67H6.0822C2.71887 67 0 64.2716 0 60.9115V45.0452H7.53898L19.0925 33.5336L26.3226 40.7779C28.679 43.1501 28.679 46.9806 26.3226 49.3529Z" fill="white"/>
<path d="M26.3226 17.6471L10.4794 1.78756C9.33813 0.645135 7.78737 0 6.16948 0H6.07549C2.71887 0 0 2.72167 0 6.08847V21.9548H7.53898L19.0925 33.5336L26.3226 26.2893C28.7059 23.9305 28.726 20.0798 26.3696 17.6942C26.3562 17.6807 26.3361 17.6606 26.3226 17.6471Z" fill="white"/>
<path d="M61.5202 44.884C61.5202 48.5464 59.0229 50.8515 53.7261 50.8515C48.7717 50.8515 45.9857 50.3206 45.9857 50.3206V47.9618C45.9857 47.9618 49.9801 48.5397 52.7191 48.5397C57.0022 48.5397 59.2108 47.5787 59.2108 44.8302V43.7214C59.2108 42.2295 58.7275 40.8317 56.1362 40.4487L51.2288 39.7766C47.9124 39.3465 45.8918 37.6127 45.8918 34.6223V33.1304C45.8918 29.4679 48.0064 26.968 54.1625 26.968C57.0492 26.968 58.4925 27.257 60.2245 27.4519V29.7166C60.2245 29.7166 57.1969 29.2865 54.3572 29.2865C50.0271 29.2865 48.2011 30.5364 48.2011 33.1371V34.1989C48.2011 35.6908 48.6845 37.1356 51.2758 37.4716L56.1832 38.1436C59.6002 38.5737 61.5202 40.3613 61.5202 43.298V44.884Z" fill="white"/>
<path d="M67.6762 21.4373V16.1418H69.9856V21.4373H67.6762ZM67.6762 50.3206V27.4989H69.9856V50.3206H67.6762Z" fill="white"/>
<path d="M105.955 50.3273V35.1128C105.955 30.9262 104.894 29.2865 102.249 29.2865C101.625 29.2865 100.47 29.3335 99.4098 30.0593L93.5894 33.9099V50.3273H91.28V35.1128C91.28 30.9262 90.2193 29.2865 87.5743 29.2865C86.95 29.2865 85.7953 29.3335 84.7346 30.0593L78.9142 33.9099V50.3273H76.6049V27.5056H78.9142V31.5041L85.4529 27.1696C85.8893 27.0285 86.4129 26.9747 86.8023 26.9747C91.0316 26.9277 92.7636 28.8026 93.3947 31.6452L100.128 27.1696C100.558 27.0285 101.088 26.9747 101.477 26.9747C106.861 26.9747 108.258 29.9585 108.258 34.1989V50.3273H105.948H105.955Z" fill="white"/>
<path d="M115.622 48.8825V60.5352H113.313V27.5123H115.622V31.5108L122.161 27.1763C122.597 27.0352 123.121 26.9815 123.51 26.9815C128.706 26.9815 131.11 30.0593 131.11 34.2997V43.0628C131.11 48.7951 127.021 50.8649 122.161 50.8649C118.455 50.8649 116.441 49.615 115.622 48.8892V48.8825ZM115.622 42.7201C115.622 47.4376 118.751 48.7413 122.161 48.7413C125.571 48.7413 128.8 47.4443 128.8 42.7201V35.1128C128.8 30.9262 126.827 29.2394 124.182 29.2394C123.557 29.2394 122.497 29.3335 121.443 30.0593L115.622 33.9099V42.7201Z" fill="white"/>
<path d="M137.655 50.3273V16.1418H139.965V50.3206H137.655V50.3273Z" fill="white"/>
<path d="M164.293 35.0188V40.0723H148.907V42.8141C148.907 47.3368 153.136 48.5935 156.842 48.5935C158.668 48.5935 161.648 48.4524 163.528 48.1096V50.3273C161.413 50.6633 159.151 50.8582 156.506 50.8582C151.31 50.8582 146.597 48.9833 146.597 42.1892V35.0188C146.597 30.3012 148.618 26.9815 155.492 26.9815C162.367 26.9815 164.293 30.3012 164.293 35.0188ZM161.984 37.7606V33.9099C161.984 31.2622 159.916 29.1453 155.492 29.1453C151.599 29.1453 148.9 30.7851 148.9 34.0107V37.7673H161.984V37.7606Z" fill="white"/>
<path d="M167.952 16.1418H171.51V31.3092L177.424 27.1696C177.854 27.0285 178.384 26.9747 178.774 26.9747C183.97 26.9747 186.373 30.0526 186.373 34.293V43.0561C186.373 49.2655 181.996 50.8582 177.142 50.8582C172.289 50.8582 167.959 49.2722 167.959 43.0561V16.1418H167.952ZM171.51 43.1502C171.51 46.3288 173.725 47.6258 177.136 47.6258C180.546 47.6258 182.808 46.3288 182.808 43.1502V35.4489C182.808 32.5592 181.654 30.5364 179.056 30.5364C178.431 30.5364 177.518 30.7313 176.793 31.1143L171.503 34.0511V43.1502H171.51Z" fill="white"/>
<path d="M209.124 35.0188V40.5091H194.308V42.626C194.308 46.6245 197.772 47.4914 201.33 47.4914C203.351 47.4914 206.332 47.2495 208.352 47.0075V50.3273C205.855 50.6633 203.64 50.8582 200.995 50.8582C195.799 50.8582 190.75 48.9833 190.75 42.1892V35.0188C190.75 30.3012 192.818 26.9815 199.981 26.9815C207.144 26.9815 209.118 30.3012 209.118 35.0188H209.124ZM205.566 37.2835V34.4879C205.566 31.8401 203.928 30.1063 199.988 30.1063C196.571 30.1063 194.315 31.3563 194.315 34.582V37.2767H205.566V37.2835Z" fill="white"/>
<path d="M228.506 44.7428C228.506 48.8354 225.666 50.8582 219.946 50.8582C215.811 50.8582 212.3 50.3273 212.3 50.3273V47.0546C212.3 47.0546 216.724 47.5855 219.322 47.5855C223.551 47.5855 225.189 46.8126 225.189 44.6017V43.5937C225.189 42.2967 224.565 41.1408 222.161 40.7981L217.543 40.1731C214.367 39.743 212.206 37.6195 212.206 34.6357V33.0968C212.206 29.0042 215.092 26.9815 220.523 26.9815C223.316 26.9815 225.384 27.2704 227.21 27.4653V30.691C227.21 30.691 223.699 30.2609 221.054 30.2609C217.16 30.2609 215.522 31.0337 215.522 33.2917V34.2527C215.522 35.5497 216.146 36.7055 218.55 37.0483L223.168 37.6732C226.391 38.11 228.506 40.2269 228.506 43.2106V44.7496V44.7428Z" fill="white"/>
<path d="M244.664 50.4214C243.892 50.6163 242.214 50.8044 241.301 50.8044C237.018 50.8044 234.809 49.0706 234.809 43.8692V30.7246H230.721V27.4989H234.809V22.2505L236.494 20.9535H238.367V27.4989H245.007V30.7246H238.367V43.3383C238.367 45.939 239.086 47.3839 241.637 47.3839C242.167 47.3839 244.04 47.2427 244.664 47.1419V50.4147V50.4214Z" fill="white"/>
</g>
<defs>
<clipPath id="clip0_3_7">
<rect width="245" height="67" fill="white"/>
</clipPath>
</defs>
</svg>
