<svg width="30" height="31" viewBox="0 0 30 31" fill="none" xmlns="http://www.w3.org/2000/svg">
<g clip-path="url(#clip0_187_662)">
<path d="M0.222637 15.4549C0.327784 7.34236 7.13228 0.77309 15.3104 0.888209C23.5368 1.00333 30.1027 7.77197 29.9399 16.0614C29.778 24.2965 23.0153 30.7724 14.7846 30.6063C6.56983 30.4403 0.0841106 23.6709 0.222637 15.4549ZM28.9911 15.7702C28.9803 8.07395 22.7516 1.83001 15.1059 1.8492C7.39682 1.86839 1.199 8.06311 1.17897 15.7677C1.15894 23.3906 7.42769 29.6579 15.0692 29.6554C22.7541 29.6529 29.0011 23.4214 28.9903 15.7702H28.9911Z" fill="white" fill-opacity="0.5"/>
<path d="M15.5702 23.1241C15.5702 23.8865 15.5702 24.5931 15.5702 25.2997C15.5702 25.4139 15.5777 25.5307 15.5602 25.6425C15.5184 25.9136 15.3632 26.0755 15.0778 26.0771C14.8133 26.0788 14.6188 25.8944 14.6072 25.5966C14.5913 25.1812 14.6013 24.7641 14.6005 24.3478C14.6005 23.9558 14.6005 23.5637 14.6005 23.1374C14.3034 23.1374 14.0455 23.1408 13.7877 23.1374C11.6272 23.1066 10.0216 21.6342 9.80212 19.4837C9.79295 19.3911 9.78293 19.2951 9.79295 19.2034C9.82299 18.9339 9.96068 18.7529 10.2477 18.7412C10.5323 18.7287 10.6975 18.8855 10.7426 19.1575C10.7751 19.3519 10.7668 19.5537 10.8044 19.7464C11.058 21.0478 12.0269 22.0313 13.3771 22.1389C14.5646 22.2332 15.7763 22.2307 16.9604 22.1089C18.4709 21.9537 19.4948 20.5406 19.4005 18.9548C19.3154 17.5183 18.0728 16.2954 16.615 16.2503C15.6895 16.222 14.7615 16.2403 13.8353 16.237C11.6772 16.2295 10.0491 14.7705 9.80546 12.6258C9.56847 10.5411 11.2992 8.4915 13.3963 8.38222C13.7785 8.3622 14.1632 8.37972 14.5796 8.37972C14.588 8.23457 14.5988 8.12529 14.5988 8.01601C14.6005 7.37034 14.5988 6.72551 14.6005 6.07985C14.6013 5.6444 14.7707 5.42167 15.092 5.42584C15.4091 5.43001 15.5685 5.65107 15.5693 6.09403C15.571 6.72885 15.5693 7.3645 15.5693 7.99933C15.5693 8.11111 15.5693 8.22206 15.5693 8.3672C15.8656 8.3672 16.1234 8.36387 16.3813 8.3672C18.5535 8.39724 20.1733 9.89294 20.3694 12.051C20.3794 12.1636 20.3827 12.2821 20.3594 12.3914C20.3101 12.6199 20.1616 12.7551 19.9221 12.7642C19.6709 12.7734 19.4948 12.6541 19.4431 12.408C19.4005 12.2062 19.4089 11.9934 19.3713 11.7891C19.1335 10.4869 18.1721 9.48669 16.8236 9.37241C15.6269 9.27147 14.4044 9.27147 13.2102 9.3966C11.6822 9.55593 10.6633 10.9791 10.7693 12.579C10.8644 14.0089 12.1128 15.2118 13.5841 15.256C14.4995 15.2835 15.4166 15.266 16.3329 15.2685C18.5109 15.2743 20.1599 16.7725 20.371 18.9398C20.5722 21.0019 18.8472 23.0123 16.7735 23.1224C16.3913 23.1424 16.0066 23.1249 15.5702 23.1249V23.1241Z" fill="white"/>
</g>
<defs>
<clipPath id="clip0_187_662">
<rect width="29.7231" height="29.7231" fill="white" transform="translate(0.219604 0.88623)"/>
</clipPath>
</defs>
</svg>
