<svg width="31" height="32" viewBox="0 0 31 32" fill="none" xmlns="http://www.w3.org/2000/svg">
<g clip-path="url(#clip0_187_640)">
<path d="M30.9045 9.30996C30.6879 9.6853 30.5001 10.0823 30.2474 10.4312C29.7956 11.0543 29.3118 11.6551 28.8231 12.2501C28.6715 12.4346 28.6859 12.5565 28.8135 12.7394C29.2765 13.4042 29.7242 14.0787 30.1736 14.7532C30.7401 15.6026 30.5748 16.4375 29.7282 17.0037C26.5957 19.101 23.46 21.195 20.3314 23.2979C20.1124 23.4455 19.907 23.6332 19.7433 23.8401C18.254 25.7224 16.7768 27.6152 15.2932 29.5023C14.6336 30.3412 13.8064 30.4374 12.9711 29.7822C12.6172 29.5047 12.261 29.2296 11.8903 28.9409C10.9996 29.5368 10.1106 30.1295 9.22471 30.7262C8.80426 31.0101 8.35652 31.1272 7.85984 30.974C7.46667 30.8529 7.19947 30.5834 6.97561 30.2482C5.18467 27.5726 3.38811 24.9011 1.59316 22.228C1.22566 21.6802 0.856563 21.1333 0.490672 20.5839C-0.0597687 19.7586 0.101512 18.9253 0.920755 18.3767C3.72913 16.496 6.54071 14.6201 9.34427 12.7322C9.58739 12.5685 9.81287 12.3568 9.99421 12.1266C12.9149 8.41732 15.83 4.70318 18.7395 0.985041C19.0043 0.64659 19.3324 0.430046 19.7336 0.304932C19.9142 0.304932 20.0939 0.304932 20.2745 0.304932C20.5585 0.465335 20.8674 0.593657 21.1226 0.791755C24.0842 3.09113 27.0346 5.40495 29.997 7.70272C30.4287 8.03796 30.7874 8.39967 30.9053 8.94985V9.30996H30.9045ZM28.1202 11.696C28.6907 10.9685 29.2348 10.278 29.7748 9.58505C30.0909 9.18003 30.0588 8.90173 29.6576 8.58815C26.6061 6.20536 23.553 3.82337 20.4999 1.44299C20.0369 1.08208 19.7858 1.11898 19.4199 1.58415C17.1034 4.53476 14.7869 7.48537 12.4704 10.4368C12.395 10.533 12.3244 10.6325 12.2513 10.7303C12.35 10.7199 12.4174 10.6814 12.4816 10.6381C13.3378 10.0655 14.1939 9.49202 15.0501 8.91938C15.1993 8.81913 15.3454 8.71085 15.5026 8.62504C15.7297 8.50153 15.9335 8.55366 16.0779 8.76619C16.2208 8.97712 16.2031 9.18244 16.0041 9.35407C15.9287 9.41903 15.8428 9.47197 15.7594 9.52731C12.1358 11.9526 8.51138 14.3779 4.88778 16.8024C4.76662 16.8834 4.64626 16.9668 4.52911 17.047C5.51926 18.9021 5.32188 21.4757 3.32633 23.192C4.10786 24.3558 4.89179 25.5227 5.66771 26.6784C8.02754 25.631 10.0736 26.032 11.8453 27.8822C16.6147 24.6902 21.3826 21.4998 26.1279 18.3238C25.0744 15.949 25.4916 13.9119 27.3475 12.1603C26.562 10.991 25.7821 9.82967 25.007 8.67637C22.6584 9.7262 20.6131 9.33161 18.831 7.47495C18.5822 7.63936 18.3367 7.83345 18.0615 7.96899C17.9323 8.03235 17.7028 8.04117 17.5993 7.96578C17.4805 7.87836 17.3979 7.66904 17.3995 7.51425C17.4011 7.40116 17.5431 7.25921 17.6579 7.18141C18.916 6.32807 20.179 5.48194 21.4443 4.63902C22.2917 4.07521 23.1181 4.24844 23.6926 5.10179C24.3121 6.0225 24.9299 6.94482 25.5494 7.86633C26.3967 9.1279 27.2432 10.3895 28.1194 11.6935L28.1202 11.696ZM27.8827 12.9583C26.489 14.0026 26.0276 16.3533 26.9287 17.7937C27.7479 17.2427 28.5712 16.6997 29.3808 16.1375C29.6295 15.9651 29.6769 15.6467 29.5068 15.3868C28.9764 14.5784 28.4324 13.778 27.8827 12.9575V12.9583ZM24.4822 7.892C23.9293 7.07153 23.3942 6.26471 22.8453 5.46831C22.6648 5.20605 22.3623 5.13306 22.1039 5.30068C21.2758 5.83563 20.4606 6.38982 19.6398 6.9368C20.5136 8.14303 22.6664 8.86885 24.4822 7.892ZM6.22296 27.4748C6.22858 27.4932 6.23099 27.5149 6.24142 27.5309C6.73489 28.2696 7.22836 29.0083 7.72424 29.7445C8.03797 30.2105 8.29875 30.2594 8.77457 29.9426C9.46382 29.4831 10.1515 29.0211 10.8391 28.5591C10.9097 28.5118 10.9739 28.4557 11.0413 28.4027C9.81928 26.8966 7.55734 26.6584 6.22296 27.474V27.4748ZM3.75641 17.5643C2.96766 18.0912 2.19656 18.6037 1.42867 19.121C1.02025 19.3961 0.965689 19.6728 1.2385 20.0826C1.71994 20.8052 2.20458 21.5247 2.69003 22.2449C2.72694 22.2994 2.77508 22.3459 2.81841 22.3956C4.21056 21.2512 4.63102 19.1306 3.75721 17.5643H3.75641ZM17.4557 25.2861C17.4436 25.2709 17.4316 25.2548 17.4187 25.2396C15.8461 26.2918 14.2734 27.3449 12.6814 28.4108C12.9109 28.5912 13.0987 28.7396 13.2872 28.8872C14.0607 29.4927 14.1602 29.4814 14.7708 28.7059C15.6671 27.567 16.5602 26.4258 17.4548 25.2861H17.4557Z" fill="white"/>
<path d="M21.2516 17.687C21.2412 20.2911 19.5537 22.5785 17.0944 23.3211C16.7357 23.4294 16.5183 23.3476 16.43 23.0717C16.3442 22.8022 16.4565 22.6114 16.7438 22.487C17.1827 22.297 17.6408 22.1342 18.0444 21.8847C19.8009 20.7996 20.6963 18.6342 20.2486 16.638C19.7784 14.5423 18.0958 12.9872 16.0128 12.7233C13.0295 12.3448 10.4434 14.5254 10.3182 17.525C10.2195 19.8853 11.8748 22.0147 14.2443 22.5681C14.4457 22.6154 14.6375 22.6579 14.6985 22.8945C14.798 23.2746 14.5131 23.5505 14.1023 23.4583C12.5705 23.1158 11.3453 22.3074 10.4554 21.0137C7.94794 17.367 10.2251 12.3432 14.6182 11.8202C18.1648 11.3984 21.266 14.1413 21.2516 17.687Z" fill="white"/>
<path d="M13.7436 14.5487C14.1103 14.5006 14.4425 14.4348 14.7779 14.4196C15.0892 14.4051 15.2697 14.596 15.2633 14.8663C15.2569 15.1406 15.0756 15.3026 14.7715 15.313C14.6262 15.3178 14.481 15.3339 14.2756 15.3499C14.6214 15.868 14.9271 16.334 15.2457 16.7895C15.2826 16.8424 15.3989 16.8625 15.4776 16.8593C15.6364 16.8521 15.7937 16.8104 15.9526 16.7983C16.7092 16.7406 17.3504 16.9499 17.7283 17.6549C18.1247 18.3935 18.1046 19.1306 17.6344 19.8396C17.5798 19.9222 17.5164 19.9992 17.4595 20.0754C17.8109 20.6713 17.8286 20.8557 17.5566 21.0474C17.2982 21.2303 17.1506 21.1589 16.7478 20.6801C16.3185 20.7723 15.9165 20.8822 15.5081 20.9383C15.1534 20.9873 14.9552 20.818 14.9335 20.5261C14.9127 20.2334 15.09 20.081 15.4463 20.0425C15.6966 20.0152 15.943 19.9503 16.2374 19.8933C15.7897 19.2252 15.3877 18.6173 14.9713 18.0198C14.9263 17.9548 14.7923 17.9292 14.6976 17.926C14.469 17.9188 14.2355 17.9629 14.01 17.9372C12.7719 17.7952 12.1605 16.4398 12.865 15.3796C12.999 15.1783 13.0102 15.0524 12.869 14.8607C12.682 14.6064 12.7286 14.3626 12.9524 14.207C13.1908 14.041 13.4154 14.0972 13.6144 14.3714C13.6666 14.4436 13.7195 14.515 13.7444 14.5487H13.7436ZM16.9002 19.2621C17.1698 18.8475 17.149 18.3406 16.8689 17.9869C16.617 17.6677 16.2768 17.5723 15.8675 17.7247C16.2118 18.2372 16.5512 18.7432 16.9002 19.2621ZM13.5663 15.9153C13.417 16.2915 13.4579 16.5794 13.6561 16.8441C13.8158 17.0566 14.0293 17.1047 14.3117 17.0269C14.0678 16.6636 13.8375 16.3211 13.5663 15.9161V15.9153Z" fill="white"/>
<path d="M8.99597 22.2825C8.8708 22.4389 8.79778 22.5881 8.67742 22.6707C8.00422 23.1366 7.32218 23.5898 6.63854 24.0397C6.38499 24.2065 6.13063 24.1544 5.98299 23.9298C5.84498 23.7197 5.89312 23.4647 6.12983 23.3035C6.82309 22.8311 7.51716 22.3603 8.22648 21.9136C8.34443 21.839 8.56348 21.8422 8.69668 21.8999C8.81624 21.9521 8.88203 22.1277 8.99597 22.2825Z" fill="white"/>
<path d="M24.8399 11.6766C24.7171 11.8322 24.6441 11.983 24.5245 12.0664C23.8521 12.5324 23.1701 12.9855 22.4873 13.4363C22.2385 13.5999 21.9681 13.5485 21.8277 13.3336C21.6873 13.1187 21.7483 12.8524 21.9938 12.6864C22.6718 12.2276 23.3474 11.7649 24.0407 11.331C24.1675 11.2516 24.3913 11.2468 24.5366 11.2997C24.6561 11.3438 24.7259 11.5251 24.8415 11.6774L24.8399 11.6766Z" fill="white"/>
</g>
<defs>
<clipPath id="clip0_187_640">
<rect width="30.7364" height="30.7364" fill="white" transform="translate(0.167969 0.304932)"/>
</clipPath>
</defs>
</svg>
