<svg width="29" height="30" viewBox="0 0 29 30" fill="none" xmlns="http://www.w3.org/2000/svg">
<g clip-path="url(#clip0_47_82)">
<path d="M22.0917 27.485C21.5737 27.3764 20.8797 27.2324 20.1865 27.0859C19.7927 27.0025 19.3963 26.9284 19.0076 26.8274C18.5449 26.707 18.1842 26.8333 17.8729 27.1886C17.2682 27.879 16.6473 28.5552 16.0349 29.2389C15.1214 30.2577 13.8659 30.2534 12.9524 29.2304C12.3485 28.5535 11.7336 27.8858 11.1365 27.2029C10.8183 26.8392 10.4552 26.7171 9.97544 26.8291C9.04747 27.0463 8.11355 27.2374 7.18048 27.4319C5.95482 27.6871 4.93584 26.9327 4.81251 25.6924C4.71725 24.7317 4.61092 23.771 4.51736 22.8103C4.47739 22.4019 4.26559 22.135 3.8922 21.9742C3.00846 21.5928 2.12643 21.2088 1.24439 20.824C0.0527492 20.3045 -0.33851 19.1249 0.313873 18.0067C0.785936 17.1984 1.26055 16.391 1.74792 15.5911C1.99374 15.1878 1.99289 14.8122 1.74792 14.4098C1.2665 13.6192 0.800395 12.8193 0.330884 12.0211C-0.344464 10.8717 0.0450941 9.69633 1.27586 9.16335C2.12047 8.79793 2.96168 8.42493 3.80969 8.06961C4.24093 7.88859 4.48504 7.60231 4.52672 7.12575C4.61007 6.16335 4.7215 5.20433 4.81761 4.24278C4.93244 3.09347 5.98033 2.31884 7.12094 2.5546C8.08548 2.75331 9.04832 2.95959 10.0086 3.17851C10.4466 3.27871 10.7971 3.17851 11.0939 2.84424C11.7174 2.14202 12.3485 1.44654 12.9754 0.747693C13.8634 -0.242484 15.1299 -0.247536 16.0161 0.737589C16.6371 1.42802 17.2631 2.11424 17.8755 2.8114C18.1859 3.16588 18.544 3.28292 19.0101 3.1743C19.9381 2.95875 20.872 2.76678 21.8051 2.57228C23.0401 2.31463 24.0633 3.05895 24.1858 4.29414C24.2802 5.24475 24.39 6.19367 24.4742 7.14595C24.515 7.61073 24.7608 7.88859 25.1784 8.06456C26.0162 8.41735 26.8506 8.78025 27.6842 9.14399C28.9788 9.70896 29.3564 10.8566 28.6479 12.0632C28.1894 12.8437 27.7369 13.6267 27.264 14.398C27.0105 14.8114 27.0097 15.192 27.264 15.6062C27.7429 16.3859 28.2022 17.1782 28.6649 17.968C29.3496 19.1375 28.9677 20.297 27.714 20.8485C26.8813 21.2147 26.0494 21.5827 25.209 21.9296C24.7634 22.114 24.5141 22.4019 24.4725 22.892C24.3908 23.8543 24.2802 24.8142 24.1816 25.7749C24.0803 26.7643 23.2732 27.49 22.0934 27.4884L22.0917 27.485ZM0.980715 18.9321C0.98837 19.46 1.19931 19.7471 1.58632 19.9147C2.49812 20.3104 3.41163 20.7011 4.32088 21.1036C4.98007 21.3957 5.38749 21.895 5.47085 22.6116C5.58652 23.6017 5.68093 24.5945 5.77705 25.5872C5.84254 26.2582 6.32226 26.6228 6.9857 26.4839C7.90771 26.2902 8.83143 26.1016 9.75004 25.8903C10.6108 25.6924 11.3108 25.9164 11.8867 26.5799C12.4608 27.2408 13.0536 27.8849 13.6388 28.5358C14.2325 29.1959 14.7726 29.1917 15.3723 28.5232C15.9711 27.8555 16.5716 27.1903 17.1678 26.5201C17.7088 25.9113 18.3782 25.7034 19.1734 25.8751C20.1048 26.0755 21.0362 26.2793 21.9684 26.4746C22.6965 26.627 23.1583 26.2717 23.2238 25.5366C23.3055 24.6273 23.4033 23.7188 23.4901 22.8094C23.5717 21.9565 24.0046 21.373 24.8101 21.0413C25.6411 20.6994 26.4611 20.3298 27.2853 19.9719C28.0295 19.6495 28.2081 19.119 27.8024 18.4303C27.3329 17.6329 26.8634 16.8347 26.3905 16.039C25.9754 15.3419 25.9763 14.6506 26.393 13.9543C26.8625 13.1687 27.3253 12.3789 27.7897 11.5908C28.2107 10.8768 28.0397 10.3522 27.2819 10.0239C26.4083 9.64581 25.5323 9.27365 24.6638 8.8855C24.0174 8.59754 23.6142 8.10413 23.5309 7.40023C23.4135 6.41006 23.3182 5.41735 23.223 4.42465C23.1566 3.73422 22.6812 3.37301 21.9973 3.51699C21.0753 3.71065 20.1524 3.90178 19.233 4.11059C18.3705 4.30677 17.6747 4.06849 17.1006 3.405C16.5214 2.73478 15.9217 2.08224 15.328 1.42465C14.7845 0.82263 14.2189 0.820104 13.6796 1.41791C13.0579 2.1075 12.4387 2.79877 11.8195 3.49005C11.2759 4.09628 10.604 4.2933 9.80872 4.11901C8.87821 3.91525 7.94599 3.7157 7.01377 3.51951C6.3095 3.37133 5.84084 3.7317 5.7762 4.4457C5.69284 5.36599 5.59588 6.2846 5.50657 7.20405C5.42491 8.0452 4.99283 8.62196 4.20435 8.95286C3.34613 9.31239 2.49557 9.68876 1.6433 10.0626C0.979014 10.3539 0.804648 10.8978 1.17379 11.526C1.63735 12.3149 2.09581 13.1072 2.57212 13.8886C3.02887 14.6363 3.02632 15.3663 2.56957 16.114C2.0924 16.8953 1.6314 17.6859 1.17379 18.4783C1.07683 18.6467 1.02069 18.8386 0.982416 18.9329L0.980715 18.9321Z" fill="white"/>
<path d="M14.5217 5.28261C19.9474 5.29187 24.3202 9.63652 24.3142 15.0143C24.3083 20.3845 19.9024 24.7376 14.4928 24.7174C9.0398 24.6963 4.67385 20.3575 4.68235 14.9671C4.69086 9.60284 9.08913 5.27419 14.5217 5.28261ZM23.3454 15.0092C23.3497 10.1922 19.3937 6.25342 14.5412 6.24247C9.63179 6.23152 5.6537 10.1611 5.652 15.0236C5.65115 19.8532 9.63264 23.76 14.5532 23.7583C19.375 23.7566 23.3412 19.8094 23.3446 15.0092H23.3454Z" fill="white"/>
<path d="M11.2776 16.1544C10.1676 16.1544 9.40894 15.3275 9.40894 14.0326V13.5215C9.40894 12.2265 10.1676 11.3997 11.2776 11.3997H11.6289C12.7389 11.3997 13.4976 12.2265 13.4976 13.5215V14.0326C13.4976 15.3275 12.7389 16.1544 11.6289 16.1544H11.2776ZM12.7287 14.0216V13.5215C12.7287 12.5422 12.3332 12.053 11.4537 12.053C10.5742 12.053 10.1787 12.5422 10.1787 13.5324V14.0216C10.1787 15.0118 10.5742 15.501 11.4537 15.501C12.3332 15.501 12.7287 15.0118 12.7287 14.0216ZM16.0034 11.4544H16.7944L13.1123 19.2874H12.266L16.0025 11.4544H16.0034ZM17.4323 19.3421C16.3223 19.3421 15.5636 18.5153 15.5636 17.2203V16.7092C15.5636 15.4143 16.3223 14.5874 17.4323 14.5874H17.7836C18.8936 14.5874 19.6523 15.4143 19.6523 16.7092V17.2203C19.6523 18.5153 18.8936 19.3421 17.7836 19.3421H17.4323ZM18.8834 17.2094V16.7092C18.8834 15.73 18.4879 15.2408 17.6084 15.2408C16.7289 15.2408 16.3334 15.73 16.3334 16.7202V17.2094C16.3334 18.1995 16.7289 18.6887 17.6084 18.6887C18.4879 18.6887 18.8834 18.1995 18.8834 17.2094Z" fill="white"/>
</g>
<defs>
<clipPath id="clip0_47_82">
<rect width="29" height="30" fill="white"/>
</clipPath>
</defs>
</svg>
