<svg width="31" height="30" viewBox="0 0 31 30" fill="none" xmlns="http://www.w3.org/2000/svg">
<path d="M0.397949 18.5543C0.532341 18.3618 0.704238 18.2663 0.952707 18.2446C1.62076 18.1864 2.13645 17.8519 2.54744 17.2939C2.43727 17.2621 2.35445 17.2435 2.27475 17.2148C2.00987 17.1193 1.73406 17.044 1.48559 16.9175C0.736273 16.5349 0.539373 15.8954 0.946456 15.235C1.38792 14.5187 2.15364 14.3526 2.82404 14.8369C3.3452 15.2133 3.59601 15.7433 3.66868 16.3673C3.67649 16.4371 3.68899 16.507 3.77103 16.5869C3.79604 16.5047 3.82963 16.4239 3.84448 16.3394C4.29844 13.7721 5.66893 11.8358 7.91296 10.4994C8.20206 10.3271 8.46303 10.3682 8.5982 10.6003C8.73494 10.8354 8.65446 11.0636 8.34974 11.246C6.85892 12.1385 5.71034 13.339 5.12198 14.982C4.26484 17.3746 4.31173 19.7525 5.4689 22.0505C6.14633 23.3962 7.20897 24.3989 8.52788 25.1199C8.95528 25.3534 9.1639 25.6577 9.23969 26.1303C9.3819 27.0181 9.58114 27.8959 9.74366 28.7806C9.78273 28.994 9.87805 29.0747 10.0945 29.0716C10.6891 29.0631 11.2837 29.06 11.8783 29.0732C12.1143 29.0786 12.2065 28.9793 12.2432 28.7612C12.3237 28.2847 12.4221 27.8105 12.5104 27.3355C12.6136 26.7791 12.8519 26.575 13.4129 26.6285C14.9435 26.7737 16.4672 26.7457 17.9892 26.5253C18.4237 26.4625 18.7214 26.7046 18.8112 27.1609C18.9144 27.6824 19.0222 28.204 19.1042 28.7294C19.1433 28.9762 19.2394 29.0802 19.5011 29.0732C20.0762 29.0577 20.6513 29.0561 21.2264 29.0739C21.4944 29.0825 21.5819 28.9637 21.6256 28.7278C21.8116 27.7096 22.0147 26.6953 22.1999 25.6771C22.2531 25.3837 22.4031 25.1905 22.664 25.0531C24.14 24.277 25.3738 23.2394 26.2278 21.792C26.4145 21.4754 26.7052 21.2915 27.0521 21.1836C27.628 21.0043 28.2022 20.822 28.7765 20.6396C29.3047 20.4712 29.4688 20.2515 29.4696 19.7091C29.4704 19.1092 29.4719 18.5085 29.4696 17.9086C29.4673 17.4662 29.2954 17.2287 28.8734 17.0867C28.5234 16.9687 28.1718 16.8554 27.8178 16.7499C27.2912 16.5924 26.9497 16.2571 26.7833 15.7371C26.5325 14.9548 26.1434 14.2447 25.634 13.599C25.5761 13.5261 25.5121 13.4578 25.4285 13.3608C25.3753 13.4772 25.3331 13.5602 25.2988 13.6464C24.8901 14.6832 24.0877 15.1108 23.0078 15.1054C21.0146 15.0953 19.5644 13.6929 19.5308 11.7178C19.5222 11.1994 19.5887 10.6787 19.6238 10.116C19.4269 10.0702 19.1949 10.0097 18.9605 9.96701C18.9097 9.95769 18.8237 9.9965 18.7932 10.0407C18.3401 10.6934 17.772 11.2281 17.0657 11.6914C17.3321 11.7753 17.5532 11.8404 17.7705 11.9142C18.0799 12.0197 18.2025 12.2215 18.1236 12.4799C18.0478 12.7259 17.8111 12.8338 17.5025 12.7345C16.2585 12.3348 14.9834 12.1447 13.677 12.168C12.5503 12.1881 11.4493 12.3713 10.3719 12.7011C10.2375 12.7422 10.0601 12.795 9.95463 12.7415C9.8218 12.674 9.66084 12.5024 9.66084 12.3759C9.66084 12.2308 9.79289 12.0298 9.92572 11.9553C10.1476 11.8311 10.4156 11.7877 10.6985 11.7C10.6149 11.6332 10.5602 11.5851 10.5016 11.544C8.49897 10.1416 7.54885 7.72958 8.08486 5.40369C8.63415 3.01881 10.5492 1.2385 12.9847 0.848911C15.4264 0.458546 17.9197 1.68164 19.1105 3.85465C19.3105 4.21862 19.2785 4.47085 19.0151 4.60977C18.7659 4.7417 18.5534 4.6315 18.3487 4.28304C17.3095 2.51592 15.7577 1.6211 13.6981 1.65603C11.3618 1.69561 9.31939 3.46971 8.89434 5.78552C8.46694 8.11684 9.7671 10.4878 11.951 11.3422C12.0877 11.3958 12.2565 11.4066 12.4042 11.3888C13.3965 11.27 14.3864 11.2731 15.3787 11.3864C15.5522 11.4058 15.7538 11.3795 15.9116 11.3065C17.7337 10.4652 18.7534 9.04969 18.948 7.05828C18.9722 6.81459 19.0159 6.58876 19.3011 6.52434C19.598 6.4576 19.8309 6.65627 19.8246 6.98067C19.8106 7.65586 19.6465 8.30077 19.398 8.92629C19.3738 8.98838 19.3503 9.05046 19.3144 9.14514C19.741 9.20723 20.0958 9.41444 20.5708 9.17851C21.6842 8.62673 22.8406 8.15798 24.0689 7.9011C24.1642 7.88092 24.2603 7.86695 24.3572 7.85453C25.3191 7.73114 25.7472 8.05088 25.8965 9.02252C26.0567 10.0694 25.952 11.1063 25.7668 12.1408C25.7457 12.2595 25.7855 12.4318 25.8645 12.5187C26.6466 13.3779 27.2435 14.3417 27.603 15.4461C27.685 15.6991 27.8397 15.8551 28.0968 15.9304C28.4695 16.0398 28.8406 16.1577 29.2086 16.2835C29.9118 16.5241 30.3369 17.1069 30.3439 17.8426C30.3502 18.5108 30.3502 19.179 30.3439 19.8464C30.3369 20.5806 29.9142 21.1642 29.2063 21.4032C28.589 21.612 27.9624 21.7913 27.3482 22.0086C27.1881 22.0652 27.0123 22.1863 26.9263 22.3275C26.0332 23.7912 24.7854 24.8738 23.293 25.6949C23.125 25.7873 23.0407 25.8936 23.0055 26.0868C22.832 27.0577 22.6429 28.0262 22.4531 28.994C22.3328 29.6063 21.9374 29.9284 21.3053 29.9323C20.6716 29.9362 20.0379 29.9369 19.4043 29.9323C18.805 29.9269 18.4104 29.6118 18.2861 29.0313C18.1736 28.5035 18.0767 27.9719 17.9736 27.4419C17.1915 27.4877 16.4273 27.549 15.6616 27.5715C14.9045 27.594 14.1466 27.5761 13.3566 27.5761C13.2769 27.9898 13.1832 28.4632 13.0941 28.9374C12.9683 29.6032 12.5815 29.93 11.9041 29.9331C11.3095 29.9354 10.7149 29.9346 10.1203 29.9331C9.40143 29.9315 9.01623 29.6125 8.8834 28.9187C8.71072 28.0162 8.5396 27.1136 8.35208 26.2141C8.32864 26.1016 8.2341 25.9697 8.13408 25.9114C5.76113 24.5425 4.27344 22.5487 3.83276 19.841C3.70774 19.0719 3.70149 18.2834 3.63586 17.4453C3.53194 17.3739 3.46084 17.4771 3.37176 17.6137C2.82326 18.4518 2.1177 19.0618 1.06053 19.1542C0.771434 19.179 0.542499 19.1092 0.399512 18.8422V18.5519L0.397949 18.5543ZM25.1065 9.98408C25.0901 9.80869 25.0729 9.46101 25.0214 9.11798C24.955 8.67562 24.8807 8.62905 24.4447 8.71209C23.1625 8.955 21.9804 9.47808 20.8083 10.019C20.6755 10.0803 20.545 10.2712 20.5224 10.4187C20.452 10.8649 20.3934 11.3205 20.4059 11.7706C20.4458 13.256 21.5858 14.2874 23.0789 14.2424C23.7728 14.2214 24.2494 13.9444 24.5104 13.2731C24.901 12.2665 25.069 11.2258 25.1065 9.9833V9.98408ZM2.81232 16.4984C2.72168 15.9994 2.57713 15.6479 2.17395 15.4663C1.9083 15.3468 1.78562 15.5408 1.67077 15.7247C1.55122 15.9156 1.65358 16.0468 1.81922 16.1182C2.1177 16.2478 2.42711 16.3525 2.8131 16.4984H2.81232Z" fill="white"/>
</svg>
