<svg width="25" height="33" viewBox="0 0 25 33" fill="none" xmlns="http://www.w3.org/2000/svg">
<g clip-path="url(#clip0_47_100)">
<path d="M-0.000445719 16.4833C-0.000445719 11.2606 -0.000445719 6.03781 -0.000445719 0.814117C-0.000445719 0.136149 0.130524 0 0.778197 0C8.59154 0 16.4049 0 24.2182 0C24.8677 0 24.9996 0.137076 24.9996 0.812265C24.9996 11.2698 24.9996 21.7274 24.9996 32.1859C24.9996 32.862 24.8677 33.0009 24.22 33.0009C16.4067 33.0009 8.59333 33.0009 0.779991 33.0009C0.130524 33.0009 -0.00134277 32.8639 -0.00134277 32.1887C-0.000445719 26.9529 -0.000445719 21.7181 -0.000445719 16.4833ZM1.03924 31.8978H23.9527V1.09383H1.03924V31.8988V31.8978Z" fill="white"/>
<path d="M5.64966 15.3441C5.12399 15.3441 4.59921 15.3488 4.07354 15.3432C3.61873 15.3386 3.43753 15.1552 3.43574 14.6977C3.43215 13.601 3.43215 12.5054 3.43574 11.4088C3.43753 10.9698 3.62322 10.7688 4.04842 10.766C5.1213 10.7586 6.19418 10.7586 7.26705 10.766C7.68957 10.7688 7.86628 10.9698 7.86718 11.418C7.86987 12.5146 7.87077 13.6103 7.86718 14.7069C7.86539 15.1524 7.68957 15.3367 7.25808 15.3432C6.72164 15.3506 6.18521 15.3451 5.64877 15.3451L5.64966 15.3441ZM4.49336 11.8552V14.2586H6.82481V11.8552H4.49336Z" fill="white"/>
<path d="M7.86898 19.9343C7.86898 20.4882 7.87256 21.042 7.86808 21.5959C7.86449 22.0358 7.68329 22.2322 7.25449 22.235C6.19238 22.2414 5.13117 22.2414 4.06906 22.235C3.62232 22.2322 3.43663 22.0358 3.43574 21.5774C3.43215 20.4808 3.43215 19.3851 3.43574 18.2885C3.43753 17.8485 3.61963 17.6596 4.05291 17.6568C5.11502 17.6513 6.17624 17.6513 7.23835 17.6568C7.69405 17.6587 7.86539 17.8411 7.86808 18.3061C7.87167 18.8488 7.86808 19.3906 7.86808 19.9334L7.86898 19.9343ZM6.83019 18.7395H4.48439V21.1309H6.83019V18.7395Z" fill="white"/>
<path d="M7.86894 6.17952C7.86894 6.73338 7.87253 7.28724 7.86804 7.84109C7.86445 8.26436 7.68235 8.45793 7.27509 8.45979C6.19055 8.46442 5.10601 8.46534 4.02147 8.45979C3.63305 8.45793 3.43929 8.26251 3.43659 7.86518C3.43031 6.7343 3.43031 5.6025 3.43659 4.47163C3.43929 4.09467 3.63484 3.88813 3.99725 3.88628C5.10422 3.87887 6.21118 3.87794 7.31815 3.88628C7.67787 3.88906 7.86176 4.09838 7.86625 4.48182C7.87253 5.04772 7.86804 5.61269 7.86804 6.17859L7.86894 6.17952ZM4.46462 7.38171H6.82746V4.94491C6.08649 4.94491 5.36347 4.94028 4.64044 4.95325C4.58124 4.95417 4.47359 5.07272 4.47269 5.13848C4.46103 5.8748 4.46462 6.61205 4.46462 7.38171Z" fill="white"/>
<path d="M7.86896 26.8483C7.86896 27.391 7.87254 27.9329 7.86806 28.4756C7.86447 28.9192 7.68327 29.1137 7.25986 29.1156C6.18698 29.1202 5.11321 29.1202 4.04033 29.1156C3.63486 29.1137 3.4393 28.9165 3.43751 28.5015C3.43213 27.3818 3.43213 26.262 3.43751 25.1432C3.4393 24.7412 3.63038 24.5449 4.01431 24.543C5.10962 24.5384 6.20582 24.5375 7.30112 24.543C7.68327 24.5449 7.86447 24.7431 7.86806 25.1515C7.87344 25.7174 7.86896 26.2824 7.86985 26.8483H7.86896ZM4.46374 25.6165C4.46374 26.2148 4.46374 26.8001 4.46374 27.3855C4.46374 27.8338 4.68142 28.0579 5.11679 28.0579C5.68283 28.0579 6.24977 28.0579 6.82568 28.0579V25.6174H4.46374V25.6165Z" fill="white"/>
<path d="M15.5531 6.71024C13.8191 6.71024 12.0851 6.71024 10.352 6.70931C10.23 6.70931 10.1035 6.70931 9.98691 6.67597C9.74291 6.60743 9.61105 6.42775 9.61463 6.16657C9.61822 5.90631 9.75278 5.72941 10.0004 5.66921C10.1179 5.64049 10.2435 5.63864 10.3664 5.63864C13.8451 5.63679 17.3239 5.63772 20.8027 5.63864C20.9032 5.63864 21.0054 5.63494 21.1041 5.65254C21.3822 5.7007 21.5437 5.87482 21.5607 6.16564C21.5769 6.43516 21.3732 6.66208 21.0906 6.70376C20.992 6.71858 20.8897 6.71117 20.7892 6.71117C19.0445 6.71117 17.2997 6.71117 15.554 6.71117L15.5531 6.71024Z" fill="white"/>
<path d="M15.5998 26.2898C17.3338 26.2898 19.0669 26.2898 20.8009 26.2907C20.9229 26.2907 21.0503 26.287 21.1669 26.3175C21.4262 26.3852 21.5697 26.5732 21.5589 26.8482C21.5491 27.1048 21.4073 27.2808 21.1579 27.3354C21.0395 27.3614 20.9139 27.3623 20.7919 27.3623C17.3248 27.3632 13.8568 27.3632 10.3897 27.3632C10.3224 27.3632 10.2551 27.366 10.1888 27.3614C9.82815 27.3391 9.61196 27.1344 9.61465 26.8205C9.61824 26.5056 9.83712 26.2953 10.1986 26.2925C11.1047 26.2851 12.0107 26.2898 12.9167 26.2898C13.812 26.2898 14.7063 26.2898 15.6016 26.2898H15.5998Z" fill="white"/>
<path d="M15.5549 13.5899C13.8102 13.5899 12.0654 13.5918 10.3206 13.5862C10.1681 13.5862 9.96898 13.5899 9.87658 13.4992C9.7474 13.3732 9.61015 13.1407 9.64065 12.9889C9.67474 12.8194 9.87927 12.6693 10.0372 12.5517C10.1125 12.4961 10.2542 12.5313 10.3664 12.5313C13.8451 12.5313 17.3239 12.5313 20.8018 12.5313C20.8574 12.5313 20.9139 12.5304 20.9695 12.5313C21.3311 12.5443 21.5571 12.7406 21.5634 13.0472C21.5697 13.3695 21.3355 13.5872 20.9579 13.5881C19.1575 13.5918 17.3562 13.5899 15.5558 13.5899H15.5549Z" fill="white"/>
<path d="M15.5926 20.4696C13.8586 20.4696 12.1255 20.4696 10.3915 20.4696C10.2794 20.4696 10.1663 20.4752 10.0569 20.4594C9.78778 20.4205 9.63439 20.2492 9.61734 19.975C9.5994 19.6796 9.75818 19.4981 10.0282 19.4258C10.1125 19.4036 10.2058 19.4138 10.2955 19.4138C13.8191 19.4138 17.3419 19.4138 20.8655 19.4138C20.9435 19.4138 21.0234 19.4082 21.1005 19.4193C21.3786 19.4573 21.5831 19.6907 21.5607 19.963C21.5365 20.2501 21.384 20.4316 21.096 20.4631C20.9857 20.4752 20.8727 20.4705 20.7605 20.4705C19.0382 20.4705 17.3159 20.4705 15.5926 20.4705V20.4696Z" fill="white"/>
</g>
<defs>
<clipPath id="clip0_47_100">
<rect width="25" height="33" fill="white"/>
</clipPath>
</defs>
</svg>
