<svg width="26" height="27" viewBox="0 0 26 27" fill="none" xmlns="http://www.w3.org/2000/svg">
<path fill-rule="evenodd" clip-rule="evenodd" d="M12.8101 0.959961C5.83006 0.959961 0.170044 6.61998 0.170044 13.6C0.170044 20.58 5.83006 26.24 12.8101 26.24C19.7901 26.24 25.45 20.58 25.45 13.6C25.45 6.61998 19.7901 0.959961 12.8101 0.959961ZM19.21 8.91998C19 11.2 18.07 16.74 17.6 19.29C17.4 20.37 17.01 20.73 16.63 20.77C15.81 20.85 15.18 20.22 14.38 19.68C13.13 18.85 12.43 18.33 11.22 17.52C9.81997 16.58 10.73 16.07 11.53 15.22C11.74 15 15.3699 11.64 15.4399 11.34C15.4399 11.3 15.46 11.16 15.37 11.09C15.29 11.01 15.16 11.04 15.08 11.06C14.95 11.09 12.96 12.43 9.09998 15.08C8.52998 15.48 8.02006 15.67 7.56006 15.66C7.05006 15.65 6.07999 15.37 5.35999 15.13C4.46999 14.84 3.76996 14.68 3.82996 14.18C3.85996 13.92 4.21 13.65 4.88 13.38C9.01 11.55 11.77 10.34 13.15 9.75998C17.09 8.08998 17.9099 7.79998 18.4399 7.78998C18.5599 7.78998 18.82 7.81996 18.99 7.95996C19.13 8.07996 19.1699 8.23998 19.1899 8.34998C19.2099 8.45998 19.23 8.71998 19.21 8.91998Z" fill="#A7A8AA"/>
</svg>
