<svg width="28" height="20" viewBox="0 0 28 20" fill="none" xmlns="http://www.w3.org/2000/svg">
<path d="M0.170044 10.7502V8.41022C0.190044 8.20022 0.20998 7.99022 0.22998 7.78022C0.35998 6.41022 0.459995 5.04021 0.619995 3.68021C0.739995 2.66021 1.20004 1.81021 2.04004 1.18021C2.70004 0.680209 3.48002 0.500219 4.27002 0.440219C6.28002 0.310219 8.29005 0.150221 10.3 0.130221C13.37 0.0902213 16.44 0.120219 19.51 0.190219C21.06 0.230219 22.62 0.380204 24.16 0.550204C25.7 0.720204 26.79 1.74021 27.15 3.24021C27.48 4.61021 27.59 6.01022 27.61 7.41022C27.64 9.16022 27.62 10.9202 27.55 12.6702C27.51 13.7202 27.3701 14.7702 27.1801 15.8102C26.8901 17.3802 25.91 18.3902 24.3 18.6302C22.98 18.8302 21.6499 18.9402 20.3199 18.9802C17.7799 19.0602 15.2299 19.1102 12.6899 19.1002C9.73994 19.1002 6.77997 19.0402 3.83997 18.6802C2.14997 18.4702 0.970034 17.4602 0.660034 15.8002C0.460034 14.7502 0.38002 13.6802 0.27002 12.6102C0.21002 11.9902 0.190024 11.3702 0.150024 10.7602L0.170044 10.7502ZM11.2 5.50022V13.6802C13.6 12.3102 15.96 10.9602 18.37 9.59021C15.96 8.22021 13.59 6.87022 11.2 5.50022Z" fill="#A7A8AA"/>
</svg>
